<?xml version="1.0" encoding="UTF-8" standalone="no"?>
<svg
   xmlns:dc="http://purl.org/dc/elements/1.1/"
   xmlns:cc="http://creativecommons.org/ns#"
   xmlns:rdf="http://www.w3.org/1999/02/22-rdf-syntax-ns#"
   xmlns:svg="http://www.w3.org/2000/svg"
   xmlns="http://www.w3.org/2000/svg"
   viewBox="0 0 288.78668 102.68"
   height="102.68"
   width="288.78668"
   xml:space="preserve"
   id="svg2"
   version="1.1"><metadata
     id="metadata8"><rdf:RDF><cc:Work
         rdf:about=""><dc:format>image/svg+xml</dc:format><dc:type
           rdf:resource="http://purl.org/dc/dcmitype/StillImage" /></cc:Work></rdf:RDF></metadata><defs
     id="defs6" /><g
     transform="matrix(1.3333333,0,0,-1.3333333,0,102.68)"
     id="g10"><g
       transform="scale(0.1)"
       id="g12"><path
         id="path14"
         style="fill:#231f20;fill-opacity:1;fill-rule:nonzero;stroke:none"
         d="m 1602.8,533.469 c 0,-55.746 45.18,-100.918 100.9,-100.918 55.76,0 100.94,45.172 100.94,100.918 0,55.73 -45.18,100.894 -100.94,100.894 -55.72,0 -100.9,-45.164 -100.9,-100.894" /><path
         id="path16"
         style="fill:#231f20;fill-opacity:1;fill-rule:nonzero;stroke:none"
         d="M 2165.93,266.941 C 2073.7,107.383 1901.24,0 1703.7,0 1506.63,0 1334.54,106.863 1242.16,265.809 l 87.34,50.664 c 74.88,-128.883 214.44,-215.516 374.2,-215.516 160.2,0 300,87.031 374.77,216.434 l 87.46,-50.45" /><path
         id="path18"
         style="fill:#231f20;fill-opacity:1;fill-rule:nonzero;stroke:none"
         d="m 2079.85,633.965 c 8.56,-32.051 13.11,-65.762 13.11,-100.496 0,-214.985 -174.26,-389.25 -389.26,-389.25 -107.52,0 -204.88,43.594 -275.33,114.09 l 71.39,71.339 c 52.16,-52.187 124.29,-84.503 203.94,-84.503 159.28,0 288.32,129.074 288.32,288.324 0,25.73 -3.36,50.711 -9.71,74.461 l 97.54,26.035" /><path
         id="path20"
         style="fill:#231f20;fill-opacity:1;fill-rule:nonzero;stroke:none"
         d="m 1767.72,770.078 c 104.3,-28.164 181.08,-123.406 181.08,-236.609 0,-135.332 -109.73,-245.078 -245.1,-245.078 -21.89,0 -43.1,2.886 -63.32,8.269 l 26.08,97.528 c 11.87,-3.153 24.35,-4.852 37.24,-4.852 79.63,0 144.14,64.531 144.14,144.133 0,66.59 -45.13,122.594 -106.48,139.168 l 26.36,97.441" /><path
         id="path22"
         style="fill:#231f20;fill-opacity:1;fill-rule:nonzero;stroke:none"
         d="m 0.230469,615.586 v 83.289 H 10.8438 v -35.992 h 29.1875 v 35.992 H 50.6406 V 615.586 H 40.0313 v 38.066 H 10.8438 V 615.586 H 0.230469" /><path
         id="path24"
         style="fill:#231f20;fill-opacity:1;fill-rule:nonzero;stroke:none"
         d="m 118.688,645.574 v 28.145 c 0,17.422 -12,18 -15.344,18 -3.3479,0 -15.3401,-0.578 -15.3401,-18 v -28.145 c 0,-18.222 5.3008,-22.84 15.3401,-22.84 10.035,0 15.344,4.618 15.344,22.84 z m -41.5317,0.473 v 27.332 c 0,16.609 8.539,27.226 26.1877,27.226 17.648,0 26.183,-10.617 26.183,-27.226 v -27.332 c 0,-23.078 -8.535,-32.192 -26.183,-32.192 -17.6487,0 -26.1877,9.114 -26.1877,32.192" /><path
         id="path26"
         style="fill:#231f20;fill-opacity:1;fill-rule:nonzero;stroke:none"
         d="m 192.148,675.918 c 0.118,4.727 -0.23,9.461 -2.421,12.109 -2.192,2.657 -7.153,3.575 -9.34,3.575 -8.77,0 -12.235,-5.305 -12.578,-6.457 -0.344,-0.926 -2.422,-2.997 -2.422,-17.301 v -22.27 c 0,-20.418 6.691,-22.84 14.883,-22.84 3.23,0 13.035,1.161 13.148,17.422 h 10.961 c 0.461,-26.301 -18.113,-26.301 -23.535,-26.301 -10.379,0 -26.297,0.696 -26.297,32.993 v 23.531 c 0,23.535 10.379,30.226 26.762,30.226 16.496,0 22.836,-8.535 21.8,-24.687 h -10.961" /><path
         id="path28"
         style="fill:#231f20;fill-opacity:1;fill-rule:nonzero;stroke:none"
         d="m 227.777,615.586 v 83.289 h 10.618 v -35.992 h 29.183 v 35.992 h 10.61 v -83.289 h -10.61 v 38.066 h -29.183 v -38.066 h -10.618" /><path
         id="path30"
         style="fill:#231f20;fill-opacity:1;fill-rule:nonzero;stroke:none"
         d="m 313.008,640.391 v -2.422 c 0,-11.309 7.152,-14.883 13.961,-14.883 8.422,0 14.883,3.574 14.883,13.496 0,18.457 -37.379,16.379 -37.379,41.414 0,14.766 10.5,22.609 24.457,22.609 15.226,0 23.761,-7.382 23.074,-24.347 H 340.93 c 0.109,9.121 -2.77,15.117 -12.809,15.117 -6.344,0 -12.805,-3.23 -12.805,-12.227 0,-18.339 37.375,-15.691 37.375,-42.105 0,-17.531 -12.109,-23.188 -25.839,-23.188 -24.571,-0.234 -24.571,18.579 -24.336,26.536 h 10.492" /><path
         id="path32"
         style="fill:#231f20;fill-opacity:1;fill-rule:nonzero;stroke:none"
         d="m 413.238,675.918 c 0.117,4.727 -0.23,9.461 -2.422,12.109 -2.195,2.657 -7.148,3.575 -9.339,3.575 -8.774,0 -12.235,-5.305 -12.575,-6.457 -0.347,-0.926 -2.425,-2.997 -2.425,-17.301 v -22.27 c 0,-20.418 6.691,-22.84 14.878,-22.84 3.231,0 13.04,1.161 13.153,17.422 h 10.961 c 0.461,-26.301 -18.11,-26.301 -23.535,-26.301 -10.379,0 -26.297,0.696 -26.297,32.993 v 23.531 c 0,23.535 10.379,30.226 26.761,30.226 16.493,0 22.836,-8.535 21.801,-24.687 h -10.961" /><path
         id="path34"
         style="fill:#231f20;fill-opacity:1;fill-rule:nonzero;stroke:none"
         d="m 448.867,615.586 v 83.289 h 10.613 v -35.992 h 29.188 v 35.992 h 10.613 v -83.289 h -10.613 v 38.066 H 459.48 v -38.066 h -10.613" /><path
         id="path36"
         style="fill:#231f20;fill-opacity:1;fill-rule:nonzero;stroke:none"
         d="m 525.906,698.875 h 10.614 v -53.301 c 0,-18.222 5.535,-22.84 15.574,-22.84 10.035,0 15.574,4.618 15.574,22.84 v 53.301 h 10.609 v -52.828 c 0,-23.078 -8.535,-32.192 -26.183,-32.192 -17.653,0 -26.188,9.114 -26.188,32.192 v 52.828" /><path
         id="path38"
         style="fill:#231f20;fill-opacity:1;fill-rule:nonzero;stroke:none"
         d="m 604.449,615.586 v 83.289 h 10.61 v -74.062 h 30.57 v -9.227 h -41.18" /><path
         id="path40"
         style="fill:#231f20;fill-opacity:1;fill-rule:nonzero;stroke:none"
         d="m 663.617,615.586 v 83.289 h 42.91 v -9.227 H 674.23 v -26.765 h 29.993 v -9.231 H 674.23 v -28.839 h 32.993 v -9.227 h -43.606" /><path
         id="path42"
         style="fill:#231f20;fill-opacity:1;fill-rule:nonzero;stroke:none"
         d="m 0,500.254 v 83.293 h 41.2969 v -9.231 H 10.6133 V 547.551 H 39.6836 V 538.32 H 10.6133 V 500.254 H 0" /><path
         id="path44"
         style="fill:#231f20;fill-opacity:1;fill-rule:nonzero;stroke:none"
         d="m 55.1289,583.547 h 10.6094 v -53.305 c 0,-18.222 5.5351,-22.84 15.5742,-22.84 10.0352,0 15.5742,4.618 15.5742,22.84 v 53.305 h 10.6093 v -52.832 c 0,-23.078 -8.5351,-32.192 -26.1835,-32.192 -17.6523,0 -26.1836,9.114 -26.1836,32.192 v 52.832" /><path
         id="path46"
         style="fill:#231f20;fill-opacity:1;fill-rule:nonzero;stroke:none"
         d="m 139.668,547.781 h 15.918 c 7.613,0 11.305,6.574 11.305,13.84 0,6.008 -3,12.695 -11.188,12.695 h -16.035 z m 0,-9.226 v -38.301 h -10.613 v 83.293 h 28.722 c 14.766,0 19.957,-10.395 19.957,-20.774 0,-9.804 -5.421,-17.296 -15.222,-19.035 v -0.222 c 9.574,-1.504 13.031,-4.739 13.605,-21.457 0.117,-3.582 1.27,-16.61 2.887,-21.805 H 167.93 c -2.996,5.769 -2.309,16.609 -3.227,27.684 -0.812,10.16 -9,10.617 -12.578,10.617 h -12.457" /><path
         id="path48"
         style="fill:#231f20;fill-opacity:1;fill-rule:nonzero;stroke:none"
         d="m 243.59,583.547 v -9.231 h -21.918 v -74.062 h -10.613 v 74.062 h -21.918 v 9.231 h 54.449" /><path
         id="path50"
         style="fill:#231f20;fill-opacity:1;fill-rule:nonzero;stroke:none"
         d="m 249.23,583.547 h 11.301 l 15.692,-72.219 h 0.226 l 16.731,72.219 h 13.722 l 15.114,-72.219 h 0.23 l 16.957,72.219 h 11.074 l -22.031,-83.293 h -12.918 l -15.808,72.219 h -0.227 l -16.844,-72.219 h -12.918 l -20.301,83.293" /><path
         id="path52"
         style="fill:#231f20;fill-opacity:1;fill-rule:nonzero;stroke:none"
         d="m 384.977,573.738 h -0.231 l -13.031,-44.414 h 26.644 z m -6.457,9.809 h 13.496 l 27.109,-83.293 h -11.883 l -5.996,19.844 h -32.187 l -6.231,-19.844 h -10.726 l 26.418,83.293" /><path
         id="path54"
         style="fill:#231f20;fill-opacity:1;fill-rule:nonzero;stroke:none"
         d="m 491.324,583.547 v -83.293 h -14.539 l -32.875,72.219 h -0.226 v -72.219 h -9.461 v 83.293 h 14.996 l 32.418,-71.289 h 0.226 v 71.289 h 9.461" /><path
         id="path56"
         style="fill:#231f20;fill-opacity:1;fill-rule:nonzero;stroke:none"
         d="m 553.941,561.277 c 0,9.809 -4.039,15.11 -14.765,15.11 -3.348,0 -15.344,-0.578 -15.344,-17.996 v -28.149 c 0,-18.222 5.305,-22.84 15.344,-22.84 7.609,0 12.687,2.078 14.883,3.692 v 24.922 h -15.348 v 9.226 h 25.957 v -40.484 c -6.809,-3.695 -14.766,-6.235 -25.492,-6.235 -17.653,0 -26.188,9.114 -26.188,32.192 v 27.332 c 0,16.609 8.535,27.226 26.188,27.226 17.992,0 26.531,-6.574 25.84,-23.996 h -11.075" /><path
         id="path58"
         style="fill:#231f20;fill-opacity:1;fill-rule:nonzero;stroke:none"
         d="m 587.844,500.254 v 83.293 h 42.91 v -9.231 h -32.301 v -26.765 h 29.992 v -9.231 h -29.992 v -28.84 h 32.992 v -9.226 h -43.601" /><path
         id="path60"
         style="fill:#231f20;fill-opacity:1;fill-rule:nonzero;stroke:none"
         d="M 706.641,583.547 V 500.254 H 692.105 L 659.23,572.473 H 659 v -72.219 h -9.457 v 83.293 h 14.992 l 32.418,-71.289 h 0.231 v 71.289 h 9.457" /><path
         id="path62"
         style="fill:#231f20;fill-opacity:1;fill-rule:nonzero;stroke:none"
         d="m 117.754,468.215 h 10.609 V 414.91 c 0,-18.222 5.539,-22.84 15.578,-22.84 10.036,0 15.571,4.618 15.571,22.84 v 53.305 h 10.609 v -52.832 c 0,-23.078 -8.535,-32.192 -26.18,-32.192 -17.652,0 -26.187,9.114 -26.187,32.192 v 52.832" /><path
         id="path64"
         style="fill:#231f20;fill-opacity:1;fill-rule:nonzero;stroke:none"
         d="m 249.703,468.215 v -83.293 h -14.539 l -32.875,72.219 h -0.226 v -72.219 h -9.461 v 83.293 h 14.996 l 32.418,-71.289 h 0.226 v 71.289 h 9.461" /><path
         id="path66"
         style="fill:#231f20;fill-opacity:1;fill-rule:nonzero;stroke:none"
         d="m 284.41,384.922 h -10.617 v 83.293 h 10.617 v -83.293" /><path
         id="path68"
         style="fill:#231f20;fill-opacity:1;fill-rule:nonzero;stroke:none"
         d="m 336.891,384.922 h -12.692 l -24.109,83.293 h 11.535 l 19.035,-73.254 h 0.231 l 19.496,73.254 h 10.84 l -24.336,-83.293" /><path
         id="path70"
         style="fill:#231f20;fill-opacity:1;fill-rule:nonzero;stroke:none"
         d="m 375.406,384.922 v 83.293 h 42.91 v -9.231 h -32.3 v -26.765 h 29.996 v -9.231 h -29.996 v -28.84 h 32.992 v -9.226 h -43.602" /><path
         id="path72"
         style="fill:#231f20;fill-opacity:1;fill-rule:nonzero;stroke:none"
         d="m 446.793,432.449 h 15.918 c 7.609,0 11.305,6.574 11.305,13.84 0,6.008 -3,12.695 -11.188,12.695 h -16.035 z m 0,-9.226 v -38.301 h -10.617 v 83.293 h 28.726 c 14.766,0 19.957,-10.395 19.957,-20.774 0,-9.804 -5.421,-17.296 -15.226,-19.035 v -0.222 c 9.57,-1.504 13.035,-4.739 13.609,-21.457 0.117,-3.582 1.27,-16.61 2.887,-21.805 h -11.074 c -3,5.769 -2.305,16.609 -3.235,27.683 -0.804,10.161 -8.992,10.618 -12.574,10.618 h -12.453" /><path
         id="path74"
         style="fill:#231f20;fill-opacity:1;fill-rule:nonzero;stroke:none"
         d="m 512.07,409.727 v -2.422 c 0,-11.309 7.153,-14.883 13.961,-14.883 8.422,0 14.883,3.574 14.883,13.496 0,18.457 -37.379,16.379 -37.379,41.418 0,14.762 10.496,22.605 24.457,22.605 15.227,0 23.762,-7.382 23.071,-24.343 h -11.075 c 0.114,9.121 -2.765,15.117 -12.804,15.117 -6.344,0 -12.805,-3.235 -12.805,-12.231 0,-18.339 37.375,-15.691 37.375,-42.105 0,-17.531 -12.109,-23.188 -25.84,-23.188 -24.57,-0.23 -24.57,18.575 -24.336,26.536 h 10.492" /><path
         id="path76"
         style="fill:#231f20;fill-opacity:1;fill-rule:nonzero;stroke:none"
         d="m 583.578,384.922 h -10.613 v 83.293 h 10.613 v -83.293" /><path
         id="path78"
         style="fill:#231f20;fill-opacity:1;fill-rule:nonzero;stroke:none"
         d="m 653.707,468.215 v -9.231 h -21.922 v -74.062 h -10.609 v 74.062 h -21.918 v 9.231 h 54.449" /><path
         id="path80"
         style="fill:#231f20;fill-opacity:1;fill-rule:nonzero;stroke:none"
         d="m 704.566,468.215 h 10.727 l -22.727,-51.574 v -31.719 h -10.613 v 31.719 l -22.379,51.574 h 11.879 l 16.266,-40.266 16.847,40.266" /><path
         id="path82"
         style="fill:#231f20;fill-opacity:1;fill-rule:nonzero;stroke:none"
         d="m 837.98,381.594 v 322.808 h 41.114 V 564.883 h 113.125 v 139.519 h 41.131 V 381.594 H 992.219 V 529.133 H 879.094 V 381.594 H 837.98" /><path
         id="path84"
         style="fill:#231f20;fill-opacity:1;fill-rule:nonzero;stroke:none"
         d="m 1090.05,381.594 v 322.808 h 160.06 v -35.769 h -118.89 v -103.75 h 112.66 v -35.75 H 1131.22 V 381.594 h -41.17" /><path
         id="path86"
         style="fill:#231f20;fill-opacity:1;fill-rule:nonzero;stroke:none"
         d="m 1284.31,704.402 h 41.11 V 497.844 c 0,-70.649 21.48,-88.528 60.37,-88.528 38.89,0 60.37,17.879 60.37,88.528 v 206.558 h 41.12 V 499.629 c 0,-89.426 -33.09,-124.727 -101.49,-124.727 -68.4,0 -101.48,35.301 -101.48,124.727 v 204.773" /><path
         id="path88"
         style="fill:none;stroke:#231f20;stroke-width:5.16677999;stroke-linecap:butt;stroke-linejoin:miter;stroke-miterlimit:4;stroke-dasharray:none;stroke-opacity:1"
         d="M 769.402,704.785 V 381.238" /></g></g></svg>